<?xml version="1.0" encoding="UTF-8"?>
<svg width="24px" height="24px" fill="#80cc28" version="1.1" viewBox="0 -960 960 960" xml:space="preserve" xmlns="http://www.w3.org/2000/svg"><path d="m40-336.1s5.4794-16.5 9.863-35.2c0 0 4.3836-18.7 8.7671-39.6 0 0 4.3836-20.9 6.5754-42.9 0 0 2.1918-22 2.1918-45.1 0 0 0-23.1-2.1918-45.1 0 0-2.1918-22-6.5754-42.9 0 0-4.3836-20.9-8.7671-39.6 0 0-4.3836-18.7-9.863-35.2 0 0 15.342 15.4 33.973 35.2 0 0 18.63 18.7 40.548 40.7 0 0 21.918 20.9 46.027 42.9 0 0 24.11 22 50.411 45.1 0 0-26.301 23.1-50.411 45.1 0 0-24.11 22-46.027 42.9 0 0-21.918 20.9-40.548 40.7 1.0959-2.1999-17.534 16.5-33.973 33zm784.66-163.9s0 26.4-9.8631 49.5c0 0-9.863 23.1-26.301 39.6 0 0-16.438 17.6-39.452 27.5 0 0-23.014 9.8999-48.219 9.8999 0 0-26.301 0-49.315-9.8999 0 0-23.014-9.9-39.452-27.5 0 0-17.534-17.6-27.397-39.6 0 0-9.863-23.1-9.863-49.5 0 0 0-26.4 9.863-49.5 0 0 9.863-23.1 27.397-39.6 0 0 17.534-17.6 39.452-27.5 0 0 23.014-9.9 49.315-9.9 0 0 25.205 0 48.219 9.9 0 0 23.014 9.9 39.452 27.5 0 0 16.438 17.6 26.301 39.6 0 0 9.8631 23.1 9.8631 49.5zm-564.38 0s64.658 53.9 126.03 95.7c0 0 60.274 40.7 116.16 68.2 0 0 55.89 27.5 105.21 41.8 0 0 49.315 14.3 93.151 14.3 0 0 44.932 0 85.479-17.6 0 0 39.452-17.6 69.041-47.3 0 0 29.589-29.7 47.123-69.3 0 0 17.534-39.6 17.534-85.8 0 0 0-45.1-17.534-85.8 0 0-17.534-39.6-47.123-69.3 0 0-29.589-29.7-69.041-47.3 0 0-39.452-17.6-85.479-17.6 0 0-42.74 0-93.151 14.3 0 0-49.315 14.3-105.21 41.8 0 0-55.89 27.5-116.16 68.2 0 0-60.274 41.8-126.03 95.7" stroke-width="50"/></svg>
